<svg xmlns="http://www.w3.org/2000/svg" xmlns:xlink="http://www.w3.org/1999/xlink"><defs/><symbol id="arrow-next" viewBox="0 0 24 24">
<path d="M2 10.5C1.17157 10.5 0.5 11.1716 0.5 12C0.5 12.8284 1.17157 13.5 2 13.5L2 12L2 10.5ZM23.0607 13.0607C23.6464 12.4749 23.6464 11.5251 23.0607 10.9393L13.5147 1.3934C12.9289 0.807614 11.9792 0.807614 11.3934 1.3934C10.8076 1.97919 10.8076 2.92893 11.3934 3.51472L19.8787 12L11.3934 20.4853C10.8076 21.0711 10.8076 22.0208 11.3934 22.6066C11.9792 23.1924 12.9289 23.1924 13.5147 22.6066L23.0607 13.0607ZM2 12L2 13.5L22 13.5L22 12L22 10.5L2 10.5L2 12Z"/>
</symbol><symbol id="arrow" viewBox="0 0 21 20">
<path d="M1.25 13.701C0.532561 14.1152 0.286748 15.0326 0.700962 15.75C1.11518 16.4674 2.03256 16.7133 2.75 16.299L2 15L1.25 13.701ZM20.7694 5.38823C20.9838 4.58803 20.5089 3.76552 19.7087 3.55111L6.66874 0.0570543C5.86854 -0.157358 5.04603 0.317515 4.83162 1.11771C4.61721 1.91791 5.09208 2.74042 5.89228 2.95483L17.4834 6.06066L14.3776 17.6518C14.1631 18.452 14.638 19.2745 15.4382 19.4889C16.2384 19.7033 17.0609 19.2284 17.2753 18.4282L20.7694 5.38823ZM2 15L2.75 16.299L20.0705 6.29904L19.3205 5L18.5705 3.70096L1.25 13.701L2 15Z"/>
</symbol><symbol id="fb" viewBox="0 0 14 24">
<path d="M3.49891 23.875H8.49891V13.8625H13.0039L13.4989 8.8875H8.49891V6.375C8.49891 6.04348 8.6306 5.72554 8.86502 5.49112C9.09944 5.2567 9.41739 5.125 9.74891 5.125H13.4989V0.125H9.74891C8.0913 0.125 6.50159 0.78348 5.32949 1.95558C4.15739 3.12769 3.49891 4.7174 3.49891 6.375V8.8875H0.998906L0.503906 13.8625H3.49891V23.875Z"/>
</symbol><symbol id="linkedin" viewBox="0 0 17 17">
<path d="M0.317757 17H3.81308V5.68438H0.317757V17Z"/>
<path d="M0 2.07188C0 3.1875 0.900311 4.09062 2.06542 4.09062C3.17757 4.09062 4.07788 3.1875 4.07788 2.07188C4.07788 0.95625 3.17757 0 2.06542 0C0.900311 0 0 0.95625 0 2.07188Z"/>
<path d="M13.4517 17H17V10.7844C17 7.75625 16.3115 5.36562 12.7632 5.36562C11.0685 5.36562 9.90343 6.32188 9.42679 7.225H9.37383V5.68438H6.03738V17H9.53271V11.4219C9.53271 9.93437 9.79751 8.5 11.6511 8.5C13.4517 8.5 13.4517 10.2 13.4517 11.475V17Z"/>
</symbol><symbol id="x" viewBox="0 0 18 17">
<path d="M14.175 0H16.9354L10.9054 6.90943L18 16.3131H12.4457L8.09229 10.611L3.11657 16.3131H0.353571L6.80271 8.92029L0 0.0012857H5.69571L9.62486 5.21229L14.175 0ZM13.2043 14.6571H14.7343L4.86 1.56986H3.21943L13.2043 14.6571Z"/>
</symbol></svg>